<svg width="17" height="16" viewBox="0 0 17 16" fill="none" xmlns="http://www.w3.org/2000/svg">
<g id="teenyicons:button-solid" clip-path="url(#clip0_6_128)">
<path id="Vector" d="M4.76665 6.4C3.91796 6.4 3.10403 6.06286 2.50391 5.46274C1.90379 4.86263 1.56665 4.04869 1.56665 3.2C1.56665 2.35131 1.90379 1.53737 2.50391 0.937258C3.10403 0.337142 3.91796 0 4.76665 0L12.2333 0C13.082 0 13.8959 0.337142 14.4961 0.937258C15.0962 1.53737 15.4333 2.35131 15.4333 3.2C15.4333 4.04869 15.0962 4.86263 14.4961 5.46274C13.8959 6.06286 13.082 6.4 12.2333 6.4H10.1V3.73333C10.1 3.02609 9.81903 2.34781 9.31894 1.84772C8.81884 1.34762 8.14056 1.06667 7.43332 1.06667C6.72607 1.06667 6.0478 1.34762 5.5477 1.84772C5.0476 2.34781 4.76665 3.02609 4.76665 3.73333V6.4Z" fill="white"/>
<path id="Vector_2" d="M7.43328 2.13334C7.00894 2.13334 6.60197 2.30191 6.30191 2.60196C6.00186 2.90202 5.83328 3.30899 5.83328 3.73334V8.58667C5.23096 8.70962 4.68961 9.0369 4.30085 9.51312C3.9121 9.98934 3.69983 10.5853 3.69995 11.2C3.69995 12.473 4.20566 13.6939 5.10584 14.5941C6.00601 15.4943 7.22691 16 8.49995 16H9.03328C10.4478 16 11.8043 15.4381 12.8045 14.4379C13.8047 13.4377 14.3666 12.0812 14.3666 10.6667V9.7568C14.3666 9.14942 14.1253 8.56692 13.6959 8.13743C13.2664 7.70795 12.6839 7.46667 12.0765 7.46667H9.03328V3.73334C9.03328 3.30899 8.86471 2.90202 8.56466 2.60196C8.2646 2.30191 7.85763 2.13334 7.43328 2.13334Z" fill="white"/>
</g>
<defs>
<clipPath id="clip0_6_128">
<rect width="16" height="16" fill="white" transform="translate(0.5)"/>
</clipPath>
</defs>
</svg>
