<svg width="240" height="79" viewBox="0 0 240 79" fill="none" xmlns="http://www.w3.org/2000/svg">
<path d="M129.676 65.0932c-2.73-2.3497-5.366-4.8583-7.906-7.5256-2.477-2.7308-4.795-5.5251-6.954-8.3829-2.096-2.8578-4.033-5.7474-5.811-8.6687-1.715-2.9849-3.176-5.9062-4.382-8.764a726.628 726.628 0 0 0-6.4779 7.1445c-2.0958 2.3498-3.9692 4.7313-5.6204 7.1446-1.6512 2.3498-2.9848 4.7313-4.001 7.1445-1.0796 2.3498-1.6194 4.6996-1.6194 7.0493 0 2.7943.4763 5.2076 1.4289 7.2398.8891 1.9688 2.0958 3.5882 3.6199 4.8583 1.5242 1.2702 3.2706 2.191 5.2394 2.7626 1.9687.5716 4.0005.8573 6.0965.8573 4.192 0 8.637-.9843 13.337-2.953 4.699-1.9688 9.049-4.6043 13.05-7.9067zM117.864 8.6036c0-2.2227-.508-3.8104-1.524-4.763-.953-1.0161-2.001-1.5242-3.144-1.5242-.952 0-1.968.3176-3.048.9526-1.016.6351-1.969 1.556-2.858 2.7626-.825 1.1431-1.524 2.5403-2.096 4.1915-.571 1.6512-.857 3.4611-.857 5.4298 0 3.6199.667 7.4621 2 11.5266 1.588-1.6512 3.081-3.2706 4.478-4.8583 1.397-1.5877 2.604-3.1436 3.62-4.6678 1.079-1.5877 1.905-3.1118 2.476-4.5725.636-1.5242.953-3.0166.953-4.4773zm36.675 69.5403c0 .1906-.127.3811-.381.5716-.254.1905-.635.2858-1.143.2858-3.81-1.2066-7.557-2.8896-11.241-5.0488-3.683-2.2228-7.271-4.7948-10.764-7.7161a74.0456 74.0456 0 0 1-7.526 5.0488c-2.603 1.5241-5.271 2.826-8.001 3.9057-2.668 1.0796-5.367 1.9052-8.098 2.4767-2.667.5716-5.239.8574-7.7158.8574-2.4132 0-4.6995-.3493-6.8587-1.0479-2.1593-.635-4.0327-1.6194-5.6204-2.953-1.5877-1.3971-2.8261-3.1118-3.7152-5.144-.9526-2.0323-1.4289-4.4138-1.4289-7.1446 0-2.9213.6668-5.7791 2.0005-8.5735 1.3336-2.8578 3.0483-5.6521 5.1441-8.3829 2.0957-2.7308 4.4137-5.3981 6.954-8.0019 2.6038-2.6038 5.1444-5.1441 7.6204-7.6208-1.841-4.9536-2.762-9.4309-2.762-13.4318 0-2.3498.413-4.509 1.238-6.4777.889-1.9688 2.001-3.6517 3.334-5.0489 1.334-1.3971 2.795-2.4767 4.382-3.2388 1.652-.8256 3.208-1.2384 4.668-1.2384 1.715 0 3.271.5716 4.668 1.7147 1.397 1.0796 2.096 2.8896 2.096 5.4299 0 1.5876-.413 3.2388-1.239 4.9535-.762 1.7147-1.81 3.4929-3.143 5.3346-1.27 1.7782-2.795 3.6517-4.573 5.6204a392.382 392.382 0 0 1-5.43 5.9061c2.096 5.7792 5.208 11.6536 9.336 17.6233 4.191 5.9061 9.272 11.4313 15.242 16.5753 3.238-2.9213 5.842-6.1284 7.811-9.6213 1.969-3.4929 2.953-7.1445 2.953-10.955 0-1.2701-.19-2.5403-.572-3.8104-.317-1.3336-.984-2.7308-2-4.1915 0-.127.191-.254.572-.381.381-.1905.73-.2858 1.047-.2858.89 0 1.588.3175 2.096.9526.572.5716.985 1.2702 1.239 2.0957.317.8256.508 1.683.571 2.5721.127.8256.191 1.4924.191 2.0005 0 4.1914-1.175 8.2559-3.525 12.1933-2.286 3.874-5.271 7.4304-8.955 10.6692 6.161 5.2711 13.115 9.5578 20.863 12.8602.444.254.666.4763.666.6668z" fill="#D0D0D0"/>
<path d="M18.24 44.1278c0-1.984-.128-3.632-.384-4.944-.224-1.312-.544-1.968-.96-1.968-.256 0-.496.192-.72.576-.224.352-.416.864-.576 1.536-.128.64-.24 1.408-.336 2.304-.064.864-.096 1.808-.096 2.832 0 1.824.128 3.792.384 5.904.256 2.08.704 4.096 1.344 6.048.448-2.048.784-4.144 1.008-6.288.224-2.176.336-4.176.336-6zm20.112-21.792c0 .16-.064.288-.192.384-.128.096-.288.208-.48.336-.96.576-1.744 1.376-2.352 2.4-.608 1.024-1.104 2.144-1.488 3.36a20.9232 20.9232 0 0 0-.72 3.744c-.128 1.248-.192 2.4-.192 3.456 0 .736.032 1.648.096 2.736.096 1.056.192 2.224.288 3.504.128 1.28.224 2.64.288 4.08.096 1.408.144 2.848.144 4.32 0 2.08-.128 4.096-.384 6.048-.224 1.952-.688 3.696-1.392 5.232-.672 1.536-1.616 2.768-2.832 3.696-1.216.928-2.8 1.392-4.752 1.392-.896 0-1.744-.176-2.544-.528-.768-.32-1.488-.784-2.16-1.392-.64-.608-1.232-1.312-1.776-2.112-.512-.8-.976-1.68-1.392-2.64-.416 1.12-.912 2.16-1.488 3.12-.544.96-1.152 1.792-1.824 2.496-.672.704-1.408 1.248-2.208 1.632-.8.384-1.648.576-2.544.576-1.376 0-2.544-.352-3.504-1.056-.928-.704-1.696-1.632-2.304-2.784-.608-1.12-1.088-2.4-1.44-3.84-.32-1.472-.56-2.96-.72-4.464-.16-1.536-.272-3.024-.336-4.464a577.62 577.62 0 0 0-.096-3.888c-.064-2.016-.032-3.92.096-5.712.16-1.824.336-3.456.528-4.896.192-1.472.384-2.736.576-3.792.192-1.056.32-1.84.384-2.352.032-.192.224-.32.576-.384.384-.064.72-.096 1.008-.096.224 0 .416.032.576.096.16.032.24.128.24.288 0 .192-.08.528-.24 1.008-.16.448-.4 1.312-.72 2.592-.128.576-.272 1.408-.432 2.496-.128 1.056-.256 2.256-.384 3.6-.096 1.344-.176 2.784-.24 4.32-.064 1.504-.096 2.976-.096 4.416 0 1.12.048 2.352.144 3.696.096 1.312.256 2.624.48 3.936.224 1.28.528 2.528.912 3.744.384 1.216.848 2.288 1.392 3.216.576.928 1.248 1.664 2.016 2.208.768.576 1.664.864 2.688.864.768 0 1.472-.192 2.112-.576.64-.384 1.232-.928 1.776-1.632.544-.672 1.024-1.472 1.44-2.4.448-.928.848-1.936 1.2-3.024-.736-2.016-1.28-4.16-1.632-6.432-.352-2.272-.528-4.368-.528-6.288 0-1.408.048-2.8.144-4.176.128-1.376.304-2.608.528-3.696s.512-1.968.864-2.64c.352-.672.768-1.008 1.248-1.008.384 0 .72.24 1.008.72.32.48.576 1.136.768 1.968.224.832.384 1.824.48 2.976.128 1.12.192 2.336.192 3.648 0 2.112-.144 4.336-.432 6.672-.288 2.304-.736 4.56-1.344 6.768.416 1.12.896 2.16 1.44 3.12.544.928 1.152 1.744 1.824 2.448.704.704 1.472 1.248 2.304 1.632.864.416 1.808.624 2.832.624 1.408 0 2.56-.352 3.456-1.056.896-.672 1.6-1.6 2.112-2.784.512-1.216.864-2.608 1.056-4.176.192-1.6.288-3.312.288-5.136 0-1.632-.064-3.312-.192-5.04-.096-1.728-.208-3.44-.336-5.136-.128-1.728-.256-3.392-.384-4.992-.096-1.632-.144-3.136-.144-4.512 0-.992.144-2.144.432-3.456.32-1.312.736-2.544 1.248-3.696.544-1.184 1.152-2.176 1.824-2.976.704-.832 1.44-1.248 2.208-1.248.224 0 .448.112.672.336.224.192.336.384.336.576z" fill="black"/>
<path d="M53.3396 54.2078c0-.48-.08-.864-.24-1.152-.16-.32-.416-.48-.768-.48-.544 0-.96.272-1.248.816-.288.512-.416 1.168-.384 1.968.096 1.696.4 3.12.912 4.272.544-.736.96-1.568 1.248-2.496.32-.928.48-1.904.48-2.928zm12.96-.048c-.224.48-.464.976-.72 1.488-.256.48-.544.96-.864 1.44-1.632 2.432-3.28 4.24-4.944 5.424-1.664 1.184-3.216 1.776-4.656 1.776-1.824 0-3.216-.864-4.176-2.592-1.12 1.12-2.384 1.968-3.792 2.544-1.376.576-2.736.864-4.08.864-.8 0-1.568-.112-2.304-.336-.704-.224-1.312-.56-1.824-1.008-.544-.48-.976-1.072-1.296-1.776-.32-.736-.48-1.584-.48-2.544 0-1.152.272-2.32.816-3.504.512-1.216 1.232-2.304 2.16-3.264.96-.992 2.08-1.808 3.36-2.448s2.672-.96 4.176-.96c1.216 0 2.16.176 2.832.528.672.32 1.008.624 1.008.912 0 .128-.064.224-.192.288-.128.064-.24.096-.336.096-.032-.032-.064-.048-.096-.048h-.048a4.226 4.226 0 0 0-1.296-.816c-.48-.224-1.184-.336-2.112-.336-1.248 0-2.384.272-3.408.816-.992.512-1.84 1.2-2.544 2.064a9.3725 9.3725 0 0 0-1.632 2.784c-.384 1.024-.576 2.032-.576 3.024 0 1.92.448 3.312 1.344 4.176.896.864 2.016 1.296 3.36 1.296 1.088 0 2.224-.272 3.408-.816 1.184-.544 2.24-1.312 3.168-2.304-.512-1.152-.768-2.656-.768-4.512 0-1.216.224-2.272.672-3.168.448-.896 1.088-1.344 1.92-1.344 1.152 0 1.728.672 1.728 2.016 0 1.344-.192 2.56-.576 3.648-.384 1.056-.896 2.016-1.536 2.88.896 1.664 2.144 2.496 3.744 2.496 1.216 0 2.512-.512 3.888-1.536 1.408-1.024 2.784-2.512 4.128-4.464.32-.48.608-.976.864-1.488l.768-1.536.912.24z" fill="black"/>
<path d="M72.9667 32.7038c0-1.824-.304-3.28-.912-4.368-.576-1.12-1.552-1.68-2.928-1.68-.48 0-.928.16-1.344.48-.384.288-.72.688-1.008 1.2s-.512 1.104-.672 1.776c-.16.672-.24 1.392-.24 2.16 0 2.112.016 4.032.048 5.76.032 1.728.064 3.36.096 4.896.064 1.536.128 3.024.192 4.464.064 1.44.128 2.912.192 4.416.928-1.248 1.792-2.672 2.592-4.272.8-1.632 1.488-3.296 2.064-4.992.608-1.728 1.072-3.44 1.392-5.136.352-1.696.528-3.264.528-4.704zm17.376 21.456c-.224.48-.464.976-.72 1.488-.224.512-.512.992-.864 1.44-1.76 2.496-3.76 4.464-6 5.904-2.24 1.408-4.464 2.112-6.672 2.112-1.376 0-2.688-.32-3.936-.96-1.248-.608-2.352-1.6-3.312-2.976-.128-.16-.192-.304-.192-.432 0-.288.192-.432.576-.432.032 0 .144.032.336.096.256 0 .544.096.864.288.352.16.848.24 1.488.24.992 0 1.92-.176 2.784-.528.864-.352 1.6-.8 2.208-1.344.64-.576 1.136-1.216 1.488-1.92.352-.736.528-1.488.528-2.256 0-.96-.256-1.792-.768-2.496-.48-.704-1.312-1.056-2.496-1.056-1.216 0-2.336.432-3.36 1.296-1.024.832-1.952 1.856-2.784 3.072-.8 1.184-1.488 2.448-2.064 3.792-.576 1.312-1.008 2.464-1.296 3.456-.16.544-.304.88-.432 1.008-.128.128-.272.192-.432.192-.352 0-.512-.336-.48-1.008 0-.288.016-.64.048-1.056.032-.416.064-.864.096-1.344 0-.48.016-.96.048-1.44.032-.512.048-.976.048-1.392 0-1.44-.032-3.088-.096-4.944a402.002 402.002 0 0 0-.24-5.808c-.096-2.016-.176-4.016-.24-6-.064-1.984-.096-3.808-.096-5.472 0-1.312.096-2.576.288-3.792.192-1.248.496-2.336.912-3.264.416-.96.944-1.712 1.584-2.256.64-.576 1.392-.864 2.256-.864.896 0 1.648.16 2.256.48.64.288 1.152.72 1.536 1.296.384.544.656 1.216.816 2.016.192.768.288 1.616.288 2.544 0 1.6-.224 3.36-.672 5.28-.448 1.888-1.04 3.792-1.776 5.712a48.6652 48.6652 0 0 1-2.544 5.568c-.928 1.76-1.888 3.296-2.88 4.608.064.96.096 1.952.096 2.976.032 1.024.08 2.112.144 3.264.8-1.728 1.68-3.216 2.64-4.464.416-.544.88-1.072 1.392-1.584.544-.544 1.104-1.024 1.68-1.44.608-.416 1.248-.752 1.92-1.008.704-.256 1.44-.384 2.208-.384 1.216 0 2.272.304 3.168.912.896.608 1.344 1.584 1.344 2.928 0 1.28-.32 2.368-.96 3.264-.608.896-1.376 1.648-2.304 2.256a11.203 11.203 0 0 1-2.976 1.296c-1.056.288-2.016.464-2.88.528-.064 0-.096.016-.096.048 0 .064.048.16.144.288.64.736 1.36 1.264 2.16 1.584.8.32 1.632.48 2.496.48 1.056 0 2.128-.192 3.216-.576a16.827 16.827 0 0 0 3.12-1.584c.992-.672 1.904-1.424 2.736-2.256.864-.864 1.568-1.728 2.112-2.592.32-.48.608-.976.864-1.488l.768-1.536.912.24z" fill="black"/>
<path d="M97.1096 51.1838c0-.864-.224-1.568-.672-2.112-.416-.576-1.104-.864-2.064-.864-.512 0-.976.16-1.392.48-.416.32-.768.752-1.056 1.296-.288.512-.512 1.12-.672 1.824-.16.704-.24 1.44-.24 2.208 0 1.216.128 2.304.384 3.264.288.928.688 1.744 1.2 2.448.672-.544 1.28-1.168 1.824-1.872s1.008-1.44 1.392-2.208c.416-.768.736-1.536.96-2.304.224-.768.336-1.488.336-2.16zm12.1444 2.976c-.224.48-.464.976-.72 1.488-.224.48-.512.96-.864 1.44-1.568 2.24-3.36 3.936-5.376 5.088-1.984 1.12-3.8884 1.68-5.7124 1.68-1.024 0-1.984-.176-2.88-.528-.864-.352-1.616-.88-2.256-1.584s-1.152-1.584-1.536-2.64c-.384-1.056-.576-2.304-.576-3.744 0-.96.144-1.92.432-2.88.288-.96.672-1.824 1.152-2.592.512-.768 1.088-1.392 1.728-1.872.672-.48 1.376-.72 2.112-.72 1.184 0 2.048.352 2.592 1.056.544.672.816 1.536.816 2.592 0 1.44-.448 3.008-1.344 4.704-.864 1.664-2.112 3.216-3.744 4.656 1.216 1.376 2.784 2.064 4.704 2.064 1.44 0 2.9444-.432 4.5124-1.296 1.568-.896 3.04-2.272 4.416-4.128.352-.448.64-.928.864-1.44.256-.544.512-1.072.768-1.584l.912.24z" fill="black"/>
<path d="M150.839 42.0638c-1.184 0-2.32.128-3.408.384-1.056.256-2 .56-2.832.912-.8.352-1.456.72-1.968 1.104-.48.384-.72.72-.72 1.008 0 .384.448.576 1.344.576 1.536 0 2.992-.368 4.368-1.104 1.408-.736 2.672-1.696 3.792-2.88h-.576zm13.968 7.2c0 1.568-.448 3.264-1.344 5.088-.864 1.824-2.064 3.632-3.6 5.424-1.536 1.792-3.36 3.52-5.472 5.184-2.112 1.664-4.384 3.136-6.816 4.416-2.432 1.28-4.992 2.288-7.68 3.024-2.688.768-5.376 1.152-8.064 1.152-.448 0-.944-.016-1.488-.048-.512-.032-.992-.112-1.44-.24-.448-.096-.832-.272-1.152-.528-.32-.224-.48-.544-.48-.96 0-.576.288-1.136.864-1.68.576-.512 1.312-.992 2.208-1.44.896-.448 1.872-.848 2.928-1.2 1.056-.352 2.064-.656 3.024-.912.992-.256 1.856-.464 2.592-.624.736-.128 1.232-.192 1.488-.192.192 0 .336.048.432.144.096.096.144.192.144.288 0 .16-.08.24-.24.24h-.624c-.832 0-1.888.16-3.168.48s-2.528.72-3.744 1.2c-1.216.48-2.256 1.008-3.12 1.584-.864.608-1.296 1.168-1.296 1.68 0 .352.112.624.336.816.256.224.56.4.912.528.352.128.72.208 1.104.24.384.064.72.096 1.008.096 2.272 0 4.592-.384 6.96-1.152 2.4-.768 4.72-1.792 6.96-3.072 2.272-1.248 4.4-2.704 6.384-4.368 2.016-1.632 3.776-3.328 5.28-5.088 1.504-1.792 2.688-3.568 3.552-5.328.864-1.792 1.296-3.456 1.296-4.992 0-1.888-.784-3.456-2.352-4.704-1.536-1.28-4.08-2.016-7.632-2.208-1.44 1.344-3.024 2.432-4.752 3.264-1.696.832-3.424 1.248-5.184 1.248-1.248 0-1.872-.304-1.872-.912 0-.384.256-.816.768-1.296.544-.512 1.28-.992 2.208-1.44.96-.448 2.096-.816 3.408-1.104 1.312-.32 2.752-.48 4.32-.48h.576c1.056-1.248 1.904-2.608 2.544-4.08.64-1.504.96-2.976.96-4.416 0-.96-.176-1.872-.528-2.736-.32-.896-.864-1.664-1.632-2.304-.736-.64-1.712-1.152-2.928-1.536-1.184-.384-2.624-.576-4.32-.576-1.152 0-2.752.16-4.8.48-2.016.32-4.208.816-6.576 1.488-2.336.64-4.72 1.456-7.152 2.448-2.432.992-4.64 2.144-6.624 3.456-1.984 1.312-3.6 2.8-4.848 4.464-1.248 1.664-1.872 3.504-1.872 5.52 0 .256-.048.48-.144.672-.096.16-.192.24-.288.24-.128 0-.224-.128-.288-.384-.096-.288-.144-.752-.144-1.392.288-2.08 1.136-3.968 2.544-5.664 1.408-1.696 3.152-3.2 5.232-4.512 2.048-1.344 4.304-2.496 6.768-3.456 2.464-.96 4.896-1.744 7.296-2.352 2.432-.64 4.688-1.104 6.768-1.392 2.112-.32 3.84-.48 5.184-.48 1.952 0 3.6.192 4.944.576 1.376.352 2.496.848 3.36 1.488.864.608 1.488 1.344 1.872 2.208.384.864.576 1.776.576 2.736 0 1.568-.432 3.2-1.296 4.896-.832 1.664-1.968 3.216-3.408 4.656 2.048.096 3.808.368 5.28.816 1.472.416 2.672.976 3.6 1.68.928.672 1.6 1.472 2.016 2.4.448.896.672 1.872.672 2.928zm-25.44 12.624c0 .448-.032.768-.096.96-.064.192-.24.288-.528.288-.64.064-.96-.576-.96-1.92-.032-4.416-.08-8.448-.144-12.096-.032-3.648-.08-6.8-.144-9.456-.032-2.688-.064-4.816-.096-6.384-.032-1.568-.048-2.464-.048-2.688 0-.256.08-.432.24-.528.16-.096.352-.176.576-.24.256 0 .448.08.576.24.16.16.24.352.24.576 0 2.56.016 5.2.048 7.92l.096 8.064c.064 2.688.112 5.328.144 7.92.064 2.592.096 5.04.096 7.344z" fill="black"/>
<path d="M183.465 54.2078c0-.48-.08-.864-.24-1.152-.16-.32-.416-.48-.768-.48-.544 0-.96.272-1.248.816-.288.512-.416 1.168-.384 1.968.096 1.696.4 3.12.912 4.272.544-.736.96-1.568 1.248-2.496.32-.928.48-1.904.48-2.928zm12.96-.048c-.224.48-.464.976-.72 1.488-.256.48-.544.96-.864 1.44-1.632 2.432-3.28 4.24-4.944 5.424-1.664 1.184-3.216 1.776-4.656 1.776-1.824 0-3.216-.864-4.176-2.592-1.12 1.12-2.384 1.968-3.792 2.544-1.376.576-2.736.864-4.08.864-.8 0-1.568-.112-2.304-.336-.704-.224-1.312-.56-1.824-1.008-.544-.48-.976-1.072-1.296-1.776-.32-.736-.48-1.584-.48-2.544 0-1.152.272-2.32.816-3.504.512-1.216 1.232-2.304 2.16-3.264.96-.992 2.08-1.808 3.36-2.448s2.672-.96 4.176-.96c1.216 0 2.16.176 2.832.528.672.32 1.008.624 1.008.912 0 .128-.064.224-.192.288-.128.064-.24.096-.336.096-.032-.032-.064-.048-.096-.048h-.048a4.2258 4.2258 0 0 0-1.296-.816c-.48-.224-1.184-.336-2.112-.336-1.248 0-2.384.272-3.408.816-.992.512-1.84 1.2-2.544 2.064a9.3724 9.3724 0 0 0-1.632 2.784c-.384 1.024-.576 2.032-.576 3.024 0 1.92.448 3.312 1.344 4.176.896.864 2.016 1.296 3.36 1.296 1.088 0 2.224-.272 3.408-.816 1.184-.544 2.24-1.312 3.168-2.304-.512-1.152-.768-2.656-.768-4.512 0-1.216.224-2.272.672-3.168.448-.896 1.088-1.344 1.92-1.344 1.152 0 1.728.672 1.728 2.016 0 1.344-.192 2.56-.576 3.648-.384 1.056-.896 2.016-1.536 2.88.896 1.664 2.144 2.496 3.744 2.496 1.216 0 2.512-.512 3.888-1.536 1.408-1.024 2.784-2.512 4.128-4.464.32-.48.608-.976.864-1.488l.768-1.536.912.24z" fill="black"/>
<path d="M203.092 32.7038c0-1.824-.304-3.28-.912-4.368-.576-1.12-1.552-1.68-2.928-1.68-.48 0-.928.16-1.344.48-.384.288-.72.688-1.008 1.2s-.512 1.104-.672 1.776c-.16.672-.24 1.392-.24 2.16 0 2.112.016 4.032.048 5.76.032 1.728.064 3.36.096 4.896.064 1.536.128 3.024.192 4.464.064 1.44.128 2.912.192 4.416.928-1.248 1.792-2.672 2.592-4.272.8-1.632 1.488-3.296 2.064-4.992.608-1.728 1.072-3.44 1.392-5.136.352-1.696.528-3.264.528-4.704zm17.376 21.456c-.224.48-.464.976-.72 1.488a6.615 6.615 0 0 1-.864 1.44c-1.76 2.496-3.76 4.464-6 5.904-2.24 1.408-4.464 2.112-6.672 2.112-1.376 0-2.688-.32-3.936-.96-1.248-.608-2.352-1.6-3.312-2.976-.128-.16-.192-.304-.192-.432 0-.288.192-.432.576-.432.032 0 .144.032.336.096.256 0 .544.096.864.288.352.16.848.24 1.488.24.992 0 1.92-.176 2.784-.528.864-.352 1.6-.8 2.208-1.344.64-.576 1.136-1.216 1.488-1.92.352-.736.528-1.488.528-2.256 0-.96-.256-1.792-.768-2.496-.48-.704-1.312-1.056-2.496-1.056-1.216 0-2.336.432-3.36 1.296-1.024.832-1.952 1.856-2.784 3.072-.8 1.184-1.488 2.448-2.064 3.792-.576 1.312-1.008 2.464-1.296 3.456-.16.544-.304.88-.432 1.008-.128.128-.272.192-.432.192-.352 0-.512-.336-.48-1.008 0-.288.016-.64.048-1.056.032-.416.064-.864.096-1.344 0-.48.016-.96.048-1.44.032-.512.048-.976.048-1.392 0-1.44-.032-3.088-.096-4.944a402.113 402.113 0 0 0-.24-5.808c-.096-2.016-.176-4.016-.24-6-.064-1.984-.096-3.808-.096-5.472 0-1.312.096-2.576.288-3.792.192-1.248.496-2.336.912-3.264.416-.96.944-1.712 1.584-2.256.64-.576 1.392-.864 2.256-.864.896 0 1.648.16 2.256.48.64.288 1.152.72 1.536 1.296.384.544.656 1.216.816 2.016.192.768.288 1.616.288 2.544 0 1.6-.224 3.36-.672 5.28-.448 1.888-1.04 3.792-1.776 5.712a48.6652 48.6652 0 0 1-2.544 5.568c-.928 1.76-1.888 3.296-2.88 4.608.064.96.096 1.952.096 2.976.032 1.024.08 2.112.144 3.264.8-1.728 1.68-3.216 2.64-4.464.416-.544.88-1.072 1.392-1.584.544-.544 1.104-1.024 1.68-1.44.608-.416 1.248-.752 1.92-1.008.704-.256 1.44-.384 2.208-.384 1.216 0 2.272.304 3.168.912.896.608 1.344 1.584 1.344 2.928 0 1.28-.32 2.368-.96 3.264-.608.896-1.376 1.648-2.304 2.256-.928.576-1.92 1.008-2.976 1.296-1.056.288-2.016.464-2.88.528-.064 0-.096.016-.096.048 0 .064.048.16.144.288.64.736 1.36 1.264 2.16 1.584.8.32 1.632.48 2.496.48 1.056 0 2.128-.192 3.216-.576a16.827 16.827 0 0 0 3.12-1.584c.992-.672 1.904-1.424 2.736-2.256.864-.864 1.568-1.728 2.112-2.592.32-.48.608-.976.864-1.488l.768-1.536.912.24z" fill="black"/>
<path d="M227.235 51.1838c0-.864-.224-1.568-.672-2.112-.416-.576-1.104-.864-2.064-.864-.512 0-.976.16-1.392.48-.416.32-.768.752-1.056 1.296-.288.512-.512 1.12-.672 1.824-.16.704-.24 1.44-.24 2.208 0 1.216.128 2.304.384 3.264.288.928.688 1.744 1.2 2.448.672-.544 1.28-1.168 1.824-1.872s1.008-1.44 1.392-2.208c.416-.768.736-1.536.96-2.304.224-.768.336-1.488.336-2.16zm12.144 2.976c-.224.48-.464.976-.72 1.488-.224.48-.512.96-.864 1.44-1.568 2.24-3.36 3.936-5.376 5.088-1.984 1.12-3.888 1.68-5.712 1.68-1.024 0-1.984-.176-2.88-.528-.864-.352-1.616-.88-2.256-1.584s-1.152-1.584-1.536-2.64c-.384-1.056-.576-2.304-.576-3.744 0-.96.144-1.92.432-2.88.288-.96.672-1.824 1.152-2.592.512-.768 1.088-1.392 1.728-1.872.672-.48 1.376-.72 2.112-.72 1.184 0 2.048.352 2.592 1.056.544.672.816 1.536.816 2.592 0 1.44-.448 3.008-1.344 4.704-.864 1.664-2.112 3.216-3.744 4.656 1.216 1.376 2.784 2.064 4.704 2.064 1.44 0 2.944-.432 4.512-1.296 1.568-.896 3.04-2.272 4.416-4.128.352-.448.64-.928.864-1.44.256-.544.512-1.072.768-1.584l.912.24z" fill="black"/></svg>