<svg width="9.000000" height="6.000000" viewBox="0 0 9 6" fill="none" xmlns="http://www.w3.org/2000/svg" xmlns:xlink="http://www.w3.org/1999/xlink">
	<desc>
			Created with Pixso.
	</desc>
	<defs/>
	<path id="Vector" d="M2.99 5.15C2.9 5.15 2.81 5.13 2.73 5.1C2.65 5.06 2.58 5.02 2.51 4.95L-0.31 2.12C-0.38 2.06 -0.43 1.99 -0.46 1.91C-0.5 1.83 -0.52 1.74 -0.52 1.65C-0.52 1.56 -0.5 1.47 -0.47 1.39C-0.43 1.31 -0.39 1.24 -0.32 1.17C-0.26 1.11 -0.19 1.06 -0.1 1.03C-0.02 0.99 0.07 0.98 0.15 0.98C0.24 0.98 0.33 1 0.41 1.03C0.49 1.07 0.57 1.12 0.63 1.18L2.98 3.54L7.23 -0.7C7.35 -0.83 7.52 -0.9 7.7 -0.9C7.88 -0.9 8.05 -0.83 8.17 -0.7C8.3 -0.58 8.37 -0.41 8.37 -0.23C8.37 -0.06 8.3 0.11 8.17 0.24L3.46 4.95C3.4 5.02 3.32 5.06 3.24 5.1C3.16 5.13 3.07 5.15 2.99 5.15Z" fill="#FFF9F4" fill-opacity="1.000000" fill-rule="nonzero"/>
</svg>
