<svg width="33.000000" height="33.000000" viewBox="0 0 33 33" fill="none" xmlns="http://www.w3.org/2000/svg" xmlns:xlink="http://www.w3.org/1999/xlink">
	<desc>
			Created with Pixso.
	</desc>
	<defs/>
	<path id="Vector" d="M29.77 4.08L25.36 4.08C25.53 3.45 25.53 2.8 25.37 2.17C25.2 1.55 24.87 0.98 24.41 0.52C23.71 -0.16 22.77 -0.55 21.79 -0.55C20.81 -0.55 19.87 -0.16 19.17 0.52L16 3.71L12.83 0.52C12.48 0.18 12.07 -0.1 11.62 -0.28C11.17 -0.47 10.69 -0.56 10.21 -0.56C9.72 -0.56 9.24 -0.47 8.79 -0.28C8.34 -0.1 7.93 0.18 7.58 0.52C7.13 0.98 6.8 1.55 6.63 2.17C6.47 2.8 6.47 3.45 6.64 4.08L2.22 4.08C1.48 4.08 0.78 4.37 0.26 4.89C-0.26 5.41 -0.56 6.12 -0.56 6.86L-0.56 8.71C-0.56 9.26 -0.39 9.8 -0.08 10.25C0.23 10.71 0.66 11.06 1.18 11.27L1.18 27.92C1.18 29.15 1.67 30.32 2.54 31.19C3.4 32.06 4.58 32.55 5.81 32.55L26.18 32.55C27.41 32.55 28.59 32.06 29.46 31.2C30.33 30.33 30.82 29.15 30.82 27.92L30.82 11.29C31.33 11.08 31.77 10.72 32.08 10.26C32.39 9.8 32.55 9.26 32.56 8.71L32.56 6.86C32.56 6.49 32.48 6.13 32.34 5.79C32.2 5.45 32 5.15 31.74 4.89C31.48 4.63 31.17 4.43 30.83 4.29C30.5 4.15 30.13 4.08 29.77 4.08ZM8.89 1.84C9.24 1.49 9.71 1.3 10.2 1.3C10.69 1.3 11.16 1.49 11.5 1.84L13.74 4.08L8.61 4.08C8.4 3.73 8.31 3.32 8.36 2.91C8.41 2.5 8.6 2.12 8.89 1.84ZM14.14 30.7L5.81 30.7C5.07 30.7 4.36 30.41 3.84 29.89C3.32 29.36 3.03 28.66 3.03 27.92L3.03 11.49L14.14 11.49L14.14 30.7ZM14.14 9.64L2.22 9.64C1.98 9.64 1.74 9.54 1.57 9.37C1.39 9.19 1.3 8.96 1.3 8.71L1.3 6.86C1.3 6.61 1.39 6.38 1.57 6.2C1.74 6.03 1.98 5.93 2.22 5.93L14.14 5.93L14.14 9.64ZM20.5 1.84C20.82 1.52 21.24 1.33 21.69 1.3C22.14 1.27 22.58 1.41 22.93 1.68C23.29 1.96 23.53 2.35 23.62 2.79C23.71 3.23 23.63 3.69 23.41 4.08L18.26 4.08L20.5 1.84ZM28.96 27.92C28.96 28.66 28.67 29.36 28.15 29.89C27.63 30.41 26.92 30.7 26.18 30.7L17.85 30.7L17.85 11.49L28.96 11.49L28.96 27.92ZM30.7 8.71C30.7 8.96 30.61 9.19 30.43 9.37C30.26 9.54 30.02 9.64 29.78 9.64L17.85 9.64L17.85 5.93L29.78 5.93C30.02 5.93 30.26 6.03 30.43 6.2C30.61 6.38 30.7 6.61 30.7 6.86L30.7 8.71Z" fill="#704174" fill-opacity="1.000000" fill-rule="evenodd"/>
</svg>
