<svg width="22.000000" height="21.000000" viewBox="0 0 22 21" fill="none" xmlns="http://www.w3.org/2000/svg" xmlns:xlink="http://www.w3.org/1999/xlink">
	<desc>
			Created with Pixso.
	</desc>
	<defs/>
	<path id="Vector" d="M3.5 12.58L4.25 12.58C4.25 12.43 4.2 12.29 4.12 12.17C4.04 12.05 3.93 11.95 3.79 11.89L3.5 12.58ZM17.5 12.58L17.2 11.89C17.06 11.95 16.95 12.05 16.87 12.17C16.79 12.29 16.75 12.43 16.75 12.58L17.5 12.58ZM14.25 5C14.25 5.19 14.32 5.38 14.46 5.53C14.61 5.67 14.8 5.75 15 5.75C15.19 5.75 15.38 5.67 15.53 5.53C15.67 5.38 15.75 5.19 15.75 5L14.25 5ZM5.25 5C5.25 5.19 5.32 5.38 5.46 5.53C5.61 5.67 5.8 5.75 6 5.75C6.19 5.75 6.38 5.67 6.53 5.53C6.67 5.38 6.75 5.19 6.75 5L5.25 5ZM5.5 2.25C3.97 2.25 2.51 2.85 1.43 3.93C0.35 5.01 -0.25 6.47 -0.25 8L1.25 8C1.25 6.87 1.69 5.79 2.49 4.99C3.29 4.19 4.37 3.75 5.5 3.75L5.5 2.25ZM15.5 3.75C16.62 3.75 17.7 4.19 18.5 4.99C19.3 5.79 19.75 6.87 19.75 8L21.25 8C21.25 6.47 20.64 5.01 19.56 3.93C18.48 2.85 17.02 2.25 15.5 2.25L15.5 3.75ZM13.5 19.25L7.5 19.25L7.5 20.75L13.5 20.75L13.5 19.25ZM7.5 19.25C6.53 19.25 5.88 19.24 5.4 19.18C4.94 19.12 4.74 19.01 4.61 18.88L3.55 19.94C4.01 20.4 4.57 20.58 5.2 20.66C5.81 20.75 6.57 20.75 7.5 20.75L7.5 19.25ZM2.75 16C2.75 16.92 2.74 17.68 2.83 18.29C2.91 18.92 3.1 19.48 3.55 19.94L4.61 18.88C4.48 18.75 4.37 18.55 4.31 18.09C4.25 17.61 4.25 16.96 4.25 16L2.75 16ZM16.75 16C16.75 16.96 16.74 17.61 16.68 18.09C16.62 18.55 16.51 18.75 16.38 18.88L17.44 19.94C17.89 19.48 18.08 18.92 18.16 18.29C18.25 17.68 18.25 16.92 18.25 16L16.75 16ZM13.5 20.75C14.42 20.75 15.18 20.75 15.79 20.66C16.42 20.58 16.99 20.4 17.44 19.94L16.38 18.88C16.25 19.01 16.05 19.12 15.59 19.18C15.11 19.24 14.46 19.25 13.5 19.25L13.5 20.75ZM5.5 3.75C5.71 3.75 5.92 3.76 6.12 3.79L6.34 2.31C6.06 2.27 5.78 2.25 5.5 2.25L5.5 3.75ZM10.5 -0.75C9.4 -0.75 8.33 -0.41 7.44 0.23C6.54 0.87 5.87 1.77 5.52 2.81L6.94 3.29C7.19 2.55 7.67 1.9 8.31 1.45C8.95 0.99 9.71 0.75 10.5 0.75L10.5 -0.75ZM5.52 2.81C5.34 3.35 5.24 3.92 5.25 4.5L6.75 4.5C6.75 4.07 6.81 3.67 6.94 3.29L5.52 2.81ZM15.5 2.25C15.21 2.25 14.93 2.27 14.65 2.31L14.87 3.79C15.08 3.76 15.29 3.75 15.5 3.75L15.5 2.25ZM10.5 0.75C11.28 0.75 12.04 0.99 12.68 1.45C13.32 1.9 13.79 2.55 14.05 3.29L15.47 2.81C15.11 1.77 14.45 0.87 13.55 0.23C12.66 -0.41 11.59 -0.75 10.5 -0.75L10.5 0.75ZM14.05 3.29C14.18 3.67 14.25 4.07 14.25 4.5L15.75 4.5C15.75 3.91 15.65 3.34 15.47 2.81L14.05 3.29L14.05 3.29ZM4.25 16L4.25 12.58L2.75 12.58L2.75 16L4.25 16ZM3.79 11.89C3.04 11.56 2.39 11.02 1.94 10.32C1.49 9.63 1.25 8.82 1.25 8L-0.25 8C-0.25 9.11 0.07 10.21 0.68 11.14C1.3 12.08 2.17 12.82 3.2 13.27L3.79 11.89ZM16.75 12.58L16.75 16L18.25 16L18.25 12.58L16.75 12.58ZM19.75 8C19.75 8.82 19.5 9.63 19.05 10.32C18.6 11.02 17.95 11.56 17.2 11.89L17.79 13.27C18.82 12.82 19.69 12.08 20.31 11.14C20.92 10.21 21.25 9.11 21.25 8L19.75 8ZM14.25 4.5L14.25 5L15.75 5L15.75 4.5L14.25 4.5ZM5.25 4.5L5.25 5L6.75 5L6.75 4.5L5.25 4.5Z" fill="#1F1711" fill-opacity="1.000000" fill-rule="nonzero"/>
	<g opacity="0.700000">
		<path id="Vector" d="M10.5 7.99L9.98 8.53C10.12 8.67 10.3 8.74 10.5 8.74C10.69 8.74 10.87 8.67 11.01 8.53L10.5 7.99ZM9.98 11.06C9.56 10.75 9.1 10.37 8.75 9.97C8.39 9.54 8.25 9.21 8.25 9L6.75 9C6.75 9.77 7.19 10.45 7.62 10.95C8.07 11.47 8.63 11.93 9.09 12.27L9.98 11.06ZM8.25 9C8.25 8.42 8.51 8.17 8.74 8.09C8.99 8 9.45 8.03 9.98 8.53L11.01 7.45C10.19 6.66 9.15 6.35 8.24 6.67C7.31 7 6.75 7.9 6.75 9L8.25 9ZM11.89 12.27C12.35 11.93 12.92 11.47 13.37 10.95C13.8 10.45 14.25 9.77 14.25 9L12.75 9C12.75 9.21 12.6 9.54 12.24 9.97C11.89 10.37 11.43 10.75 11.01 11.06L11.9 12.27L11.89 12.27ZM14.25 9C14.25 7.9 13.68 7 12.75 6.67C11.84 6.35 10.8 6.66 9.98 7.45L11.01 8.53C11.54 8.03 12 8 12.25 8.09C12.48 8.17 12.75 8.42 12.75 9L14.25 9ZM9.1 12.27C9.46 12.54 9.88 12.88 10.5 12.88L10.5 11.38C10.47 11.38 10.46 11.38 10.4 11.35C10.26 11.26 10.11 11.16 9.98 11.06L9.09 12.27L9.1 12.27ZM11.01 11.06C10.88 11.16 10.73 11.26 10.59 11.35C10.54 11.38 10.52 11.38 10.5 11.38L10.5 12.88C11.11 12.88 11.53 12.54 11.89 12.27L11.01 11.06Z" fill="#1F1711" fill-opacity="1.000000" fill-rule="nonzero"/>
	</g>
	<g opacity="0.700000">
		<path id="Vector" d="M3.5 16L17.5 16" stroke="#1F1711" stroke-opacity="1.000000" stroke-width="1.500000" stroke-linejoin="round" stroke-linecap="round"/>
	</g>
</svg>
