<svg width="41.000000" height="41.000000" viewBox="0 0 41 41" fill="none" xmlns="http://www.w3.org/2000/svg" xmlns:xlink="http://www.w3.org/1999/xlink">
	<desc>
			Created with Pixso.
	</desc>
	<defs/>
	<circle id="Ellipse 1" cx="20.500000" cy="20.500000" r="20.500000" fill="#FFFFFF" fill-opacity="1.000000"/>
	<path id="Arrow 1" d="M12.75 27.27L12.75 27.29C12.02 27.71 11.12 27.47 10.7 26.75C10.28 26.02 10.52 25.12 11.25 24.7L11.27 24.7L12.75 27.27ZM27.48 17.06L17.34 14.34C16.52 14.12 16.06 13.31 16.28 12.5C16.49 11.69 17.3 11.22 18.11 11.44L29.7 14.55C30.51 14.76 30.98 15.57 30.76 16.38L27.66 27.97C27.44 28.79 26.63 29.25 25.82 29.04C25.01 28.82 24.54 28.01 24.76 27.2L27.48 17.06Z" fill="#FFFFFF" fill-opacity="1.000000" fill-rule="nonzero"/>
	<path id="Arrow 1" d="M25.43 16.51L17.34 14.34C16.52 14.12 16.06 13.31 16.28 12.5C16.49 11.69 17.3 11.22 18.11 11.44L29.7 14.55C30.51 14.76 30.98 15.57 30.76 16.38L27.66 27.97C27.44 28.79 26.63 29.25 25.82 29.04C25.01 28.82 24.54 28.01 24.76 27.2L26.93 19.1L12.75 27.29C12.02 27.71 11.12 27.47 10.7 26.75C10.28 26.02 10.52 25.12 11.25 24.7L25.43 16.51Z" fill="#000000" fill-opacity="1.000000" fill-rule="evenodd"/>
</svg>
