<svg width="606.000000" height="266.000000" viewBox="0 0 606 266" fill="none" xmlns="http://www.w3.org/2000/svg" xmlns:xlink="http://www.w3.org/1999/xlink">
	<mask id="mask_341_510" fill="white">
		<path id="Bubble" d="M45 0C20.1465 0 0 20.1475 0 45L0 192.952C0 217.806 20.168 237.952 45.0195 237.952L56.3613 237.952L83 266L109.639 237.952L560.98 237.952C585.832 237.952 606 217.805 606 192.952L606 45C606 20.1475 585.854 0 561 0L45 0Z" clip-rule="evenodd" fill="" fill-opacity="1.000000" fill-rule="evenodd"/>
	</mask>


	<path id="Bubble" d="M45 0C20.1465 0 0 20.1475 0 45L0 192.952C0 217.806 20.168 237.952 45.0195 237.952L56.3613 237.952L83 266L109.639 237.952L560.98 237.952C585.832 237.952 606 217.805 606 192.952L606 45C606 20.1475 585.854 0 561 0L45 0Z" clip-rule="evenodd" fill="#191A23" fill-opacity="1.000000" fill-rule="evenodd" mask="url(#mask_341_510)"/>
	<path id="Bubble" d="M109.639 237.952L560.98 237.952C585.832 237.952 606 217.805 606 192.952L606 45C606 20.1475 585.854 0 561 0L45 0C20.1465 0 0 20.1475 0 45L0 192.952C0 217.806 20.168 237.952 45.0195 237.952L56.3613 237.952L82.3108 265.274L83 266L83.6892 265.274L109.639 237.952ZM83 264.549L109.209 236.952L560.98 236.952Q570.084 236.952 577.858 233.737Q585.648 230.515 592.104 224.064Q598.563 217.609 601.787 209.815Q605 202.048 605 192.952L605 45Q605 35.8855 601.777 28.1062Q598.555 20.3298 592.113 13.8877Q585.672 7.44542 577.895 4.22349Q570.115 1 561 1L45 1Q35.8912 1 28.1153 4.21947Q20.3335 7.44139 13.8867 13.8877Q7.44458 20.3298 4.2229 28.1062Q1 35.8855 1 45L1 192.952Q1 202.048 4.21299 209.815Q7.43711 217.609 13.8965 224.064Q20.3523 230.516 28.1439 233.738Q35.917 236.953 45.0195 236.952L56.791 236.952L83 264.549Z" clip-rule="evenodd" fill="#B9FF66" fill-opacity="1.000000" fill-rule="evenodd"/>
</svg>
