<svg width="20.326172" height="17.701172" viewBox="0 0 20.3262 17.7012" fill="none" xmlns="http://www.w3.org/2000/svg" xmlns:xlink="http://www.w3.org/1999/xlink">
	<desc>
			Created with Pixso.
	</desc>
	<defs/>
	<path id="Arrow 1" d="M2.26 15.87L2.25 15.9C1.52 16.32 0.62 16.08 0.2 15.35C-0.22 14.63 0.02 13.72 0.75 13.3L0.78 13.31L2.26 15.87ZM16.98 5.66L6.84 2.95C6.03 2.73 5.56 1.92 5.78 1.11C6 0.3 6.81 -0.17 7.62 0.05L19.21 3.15C20.02 3.37 20.49 4.18 20.27 4.99L17.16 16.58C16.94 17.39 16.14 17.86 15.33 17.64C14.51 17.43 14.05 16.62 14.26 15.81L16.98 5.66Z" fill="#B9FF66" fill-opacity="1.000000" fill-rule="nonzero"/>
	<path id="Arrow 1" d="M14.93 5.11L6.84 2.95C6.03 2.73 5.56 1.92 5.78 1.11C6 0.3 6.81 -0.17 7.62 0.05L19.21 3.15C20.02 3.37 20.49 4.18 20.27 4.99L17.16 16.58C16.94 17.39 16.14 17.86 15.33 17.64C14.51 17.43 14.05 16.62 14.26 15.81L16.43 7.71L2.25 15.9C1.52 16.32 0.62 16.08 0.2 15.35C-0.22 14.63 0.02 13.72 0.75 13.3L14.93 5.11Z" fill="#B9FF66" fill-opacity="1.000000" fill-rule="evenodd"/>
</svg>
