<svg width="125.767578" height="27.228516" viewBox="0 0 125.768 27.2285" fill="none" xmlns="http://www.w3.org/2000/svg" xmlns:xlink="http://www.w3.org/1999/xlink">
	<desc>
			Created with Pixso.
	</desc>
	<defs/>
	<path id="Vector" d="M125.57 21.49C120.31 29.39 111.99 27.1 109.49 25.3C108.43 25.94 106.56 27.35 104.07 27.18C98.77 26.84 96.88 20.13 96.88 20.13C96.91 20.16 95.3 20.62 94.43 20.62C94.41 22.58 92.5 27.28 87.32 27.22C81.5 27.16 80.32 19.48 80.32 19.48C80.32 19.48 79.75 20.19 77.55 20.9C77.66 19.39 77.58 26.99 70.61 27.1C65.1 27.19 63.62 19.36 63.62 19.36C63.62 19.36 62.66 20.24 60.81 20.55C60.93 19.01 60.74 27.13 53.77 27.1C49.06 27.09 47.45 22.28 47.58 21.61C47.74 20.76 45.99 27.22 41.41 27.12C39.52 27.07 38.12 25.86 37.24 24.25C36.05 25.45 34.34 27.12 32.41 27.12C28.96 27.12 27.43 24.56 27.69 17.25C27.71 16.38 27.64 16.04 26.67 15.91C26.09 15.82 25.49 15.66 24.85 15.57C24.65 16.17 22.93 26.93 17.01 27.13C15.03 27.2 13.94 25.68 13.05 24.55C11.69 26.15 9.88 27.18 7.31 27.18C2.96 27.18 0 24.06 0 20.22C0 16.37 2.96 13.25 7.31 13.25C8.08 13.25 8.3 13.35 9 13.53C7.56 1.87 10.97 0.04 13.96 0.04C16.83 0.04 21.72 5.94 14.83 20.9C16.36 25.37 19.66 25.11 21.25 15.93C21.57 14.06 20.71 11.54 22.05 11.19C24.5 10.54 24.76 12.47 25.91 12.79C27.13 13.13 27.84 13.1 29.01 13.32C31 13.66 31.78 14.61 31.54 16.73C31.25 19.41 30.73 23.3 32.29 23.78C33.41 24.12 35.46 22.06 35.82 20.93C36.18 19.8 36.26 19.41 36.29 18.58C36.34 16.81 36.4 15.52 36.74 14.18C36.89 13.66 37.05 13.32 37.71 13.29C38.26 13.28 39.25 13.14 39.69 13.44C40.27 13.83 40.2 14.22 40.14 15.26C39.46 30.06 44.68 22.67 46.24 16.76C45.68 10.07 46.07 0.16 50.8 0C53.26 -0.09 54.34 1.66 54.47 2.96C54.8 6.65 52.91 12.75 50.41 16.85C48.99 25.22 56.64 26.87 57.87 20.19C55.87 19.35 53.7 15.93 55.46 14.27C56.45 13.33 60.57 14.68 60.63 17.6C62.65 17.12 62.92 16.12 62.95 16.28C62.39 9.59 62.91 0.16 67.64 0C70.1 -0.09 71.19 1.66 71.31 2.96C71.64 6.65 69.75 12.75 67.25 16.85C65.83 25.22 73.49 26.87 74.71 20.19C73.23 19.94 70.1 16.31 71.9 14.27C72.87 13.18 76.97 15.44 77.42 17.7C79.36 17.21 79.63 16.24 79.66 16.4C79.1 9.71 79.61 0.28 84.34 0.12C86.81 0.03 87.89 1.78 88.01 3.08C88.35 6.76 86.46 12.86 83.96 16.97C82.54 25.34 90.19 26.99 91.42 20.31C89.38 20.01 86.48 16.17 88.81 14.21C89.75 13.43 93.3 15.46 94.14 17.79C95.29 17.75 96.01 17.39 96.17 17.36C94.32 9.5 95.7 0.08 100.78 0C103.54 -0.04 106.23 1.32 105.04 8.79C103.92 15.92 99.87 18.91 99.88 18.96C100.11 19.81 102.19 26.96 107.43 23.19C107.15 22.64 106.88 22.09 106.73 21.42C105.86 17.5 107.57 13.07 112.2 12.35C114.85 11.94 117.35 13.09 117.75 15.67C118.4 19.89 114.09 22.95 112.46 23.62C111.72 23.25 119.1 27.44 123.48 19.04C123.73 18.56 124.04 18.6 124.43 18.84C124.71 19.02 126.31 20.36 125.57 21.49ZM10.48 19.18C10.26 18.59 9.8 17.29 9.64 16.73C8.75 16.04 8.11 15.93 6.97 15.93C4.43 15.93 2.93 18.01 2.93 20.25C2.93 22.5 4.56 24.58 7.1 24.58C9.3 24.58 10.98 23.25 11.49 21.37C11.13 20.64 10.78 19.97 10.48 19.18ZM13.9 3.13C12.11 3.13 11.5 6.9 11.62 10.12C11.73 12.97 12.62 15.47 13.09 16.59C13.21 16.73 13.19 16.64 13.29 16.79C16.39 10.78 15.1 3.13 13.9 3.13ZM51.05 3.25C48.75 3.01 48.76 11.53 49.05 13.44C50.25 11.74 52.33 3.71 51.05 3.25ZM67.89 3.25C65.59 3.01 65.6 11.53 65.89 13.44C67.08 11.74 69.17 3.71 67.89 3.25ZM84.6 3.37C82.29 3.13 82.31 11.65 82.59 13.56C83.79 11.86 85.87 3.82 84.6 3.37ZM101.04 2.75C97.45 3.39 98.28 14.01 98.83 15.87C103.06 10.72 103.15 2.56 101.04 2.75ZM114.51 16.02C114.32 15.34 113.41 14.98 112.78 15.07C110.98 15.29 109.23 17.28 109.9 20.31C110.05 20.99 110.43 21.61 110.43 21.59C114.46 19.19 114.81 17.29 114.51 16.02ZM38.42 10.95C37.91 10.95 37.4 10.81 36.97 10.56C36.54 10.31 36.21 9.95 36.01 9.52C35.82 9.1 35.76 8.64 35.86 8.19C35.96 7.74 36.21 7.33 36.58 7.01C36.94 6.68 37.41 6.46 37.91 6.37C38.42 6.28 38.94 6.33 39.42 6.51C39.9 6.68 40.3 6.98 40.59 7.36C40.87 7.74 41.03 8.18 41.03 8.64C41.03 8.94 40.96 9.24 40.83 9.52C40.7 9.8 40.51 10.06 40.26 10.27C40.02 10.49 39.74 10.66 39.42 10.77C39.1 10.89 38.76 10.95 38.42 10.95Z" fill="#0D0C22" fill-opacity="1.000000" fill-rule="evenodd"/>
</svg>
