<svg width="30.000000" height="30.000000" viewBox="0 0 30 30" fill="none" xmlns="http://www.w3.org/2000/svg" xmlns:xlink="http://www.w3.org/1999/xlink">
	<desc>
			Created with Pixso.
	</desc>
	<defs/>
	<path id="Social icon" d="M30 15.09C30 6.75 23.28 0 15 0C6.71 0 0 6.75 0 15.09C0 22.63 5.44 28.9 12.64 30L12.64 19.47L8.83 19.47L8.83 15.09L12.64 15.09L12.64 11.8C12.64 8.03 14.87 5.9 18.26 5.9C19.95 5.9 21.65 6.2 21.65 6.2L21.65 9.91L19.77 9.91C17.9 9.91 17.29 11.07 17.29 12.29L17.29 15.09L21.47 15.09L20.8 19.47L17.29 19.47L17.29 30C24.49 28.9 30 22.63 30 15.09Z" fill="#FFFFFF" fill-opacity="1.000000" fill-rule="nonzero"/>
</svg>
