<svg width="34.000000" height="34.000000" viewBox="0 0 34 34" fill="none" xmlns="http://www.w3.org/2000/svg" xmlns:xlink="http://www.w3.org/1999/xlink">
	<desc>
			Created with Pixso.
	</desc>
	<defs/>
	<circle id="Ellipse 3" cx="17.000000" cy="17.000000" r="17.000000" fill="#000000" fill-opacity="1.000000"/>
	<path id="linkedin" d="M11.06 12.09C9.9 12.09 9 11.18 9 10.07C9 8.95 9.9 8 11.06 8C12.17 8 13.07 8.95 13.07 10.07C13.07 11.18 12.17 12.09 11.06 12.09ZM22.45 25L26 25L26 18.78C26 15.75 25.31 13.36 21.76 13.36C20.06 13.36 18.9 14.32 18.42 15.22L18.37 15.22L18.37 13.68L15.03 13.68L15.03 25L18.53 25L18.53 19.42C18.53 17.93 18.79 16.5 20.65 16.5C22.45 16.5 22.45 18.2 22.45 19.47L22.45 25ZM12.81 25L9.31 25L9.31 13.68L12.81 13.68L12.81 25Z" fill="#B9FF66" fill-opacity="1.000000" fill-rule="evenodd"/>
</svg>
