<svg width="145.037109" height="34.450195" viewBox="0 0 145.037 34.4502" fill="none" xmlns="http://www.w3.org/2000/svg" xmlns:xlink="http://www.w3.org/1999/xlink">
	<desc>
			Created with Pixso.
	</desc>
	<defs/>
	<path id="Vector" d="M23.96 0.08L2.35 1.47C0.62 1.61 0 2.59 0 3.81L0 24.71C0 25.64 0.38 26.44 1.29 27.52L6.39 33.36C7.22 34.3 7.97 34.5 9.57 34.43L34.65 33.08C36.77 32.95 37.37 32.08 37.37 30.61L37.37 7.1C37.37 6.3 36.98 6.1 35.84 5.36L28.96 1.08C27.3 0.01 26.6 -0.13 23.96 0.08ZM10.09 6.71C8.06 6.83 7.6 6.86 6.44 6.03L3.49 3.97C3.18 3.72 3.33 3.37 4.08 3.3L24.84 1.95C26.58 1.82 27.51 2.36 28.18 2.82L31.75 5.09C31.91 5.13 32.3 5.55 31.83 5.55L10.37 6.69C10.28 6.7 10.18 6.7 10.09 6.71ZM106.5 7.69C106.5 8.9 105.37 9.89 103.99 9.89C102.61 9.89 101.48 8.9 101.48 7.69C101.48 6.44 102.61 5.45 103.99 5.45C105.37 5.45 106.5 6.44 106.5 7.69ZM50.7 14.21L50.7 28.77L46.52 28.77L46.52 7.4L50.28 7.4L62.23 21.91L62.52 21.91L62.52 7.4L66.7 7.4L66.7 28.77L62.94 28.77L50.99 14.21L50.7 14.21ZM7.73 30.4L7.73 10.44C7.73 9.58 8.04 9.16 8.95 9.09L33.59 7.81C34.42 7.74 34.81 8.22 34.81 9.09L34.81 28.92C34.81 29.79 34.65 30.52 33.28 30.59L9.7 31.8C8.33 31.87 7.73 31.48 7.73 30.4ZM91.24 12.67L91.24 8.6L95.42 8.6L95.42 12.67L99.39 12.67L99.39 15.61L95.42 15.61L95.42 23.56C95.42 25.18 96.21 25.87 97.97 25.87C98.55 25.87 98.89 25.84 99.39 25.8L99.39 28.66C98.76 28.77 97.97 28.84 97.17 28.84C92.91 28.84 91.24 27.6 91.24 24.44L91.24 15.61L88.31 15.61L88.31 12.67L91.24 12.67ZM30.33 12.8C31 12.73 31.16 12.12 31 11.52L25.8 11.77C25.05 11.84 24.43 12.39 24.58 13.12L26.55 13.33L26.55 22.55L18.81 12.12L13.2 12.46C12.13 12.53 11.75 13.4 11.9 13.99L13.79 14.13L13.79 27.31L12.42 27.66C11.9 27.79 11.75 28.46 11.9 28.73L17.13 28.46C19.02 28.46 19.02 27.25 19.02 27.25L16.66 26.79L16.66 16.81L24.09 27.13C25 28.14 25.31 28.48 26.52 28.48C27.3 28.48 28.21 28.21 29.19 27.75L29.19 13.01L30.33 12.8ZM87.43 20.67C87.43 25.95 84.05 29.1 78.53 29.1C73.01 29.1 69.67 25.95 69.63 20.67C69.63 15.42 73.06 12.23 78.53 12.23C84.05 12.23 87.43 15.42 87.43 20.67ZM126.43 20.67C126.43 25.95 123.05 29.1 117.53 29.1C111.97 29.1 108.63 25.95 108.63 20.67C108.63 15.42 112.05 12.23 117.53 12.23C123.05 12.23 126.43 15.42 126.43 20.67ZM133.08 28.77L128.9 28.77C128.9 28.77 128.9 12.56 128.86 12.56L132.91 12.56L132.91 15.17L133.2 15.17C134.08 13.33 135.92 12.23 138.68 12.23C142.77 12.23 145.03 14.4 145.03 18.28L145.03 28.77L140.85 28.77L140.85 19.16C140.85 16.71 139.68 15.46 137.13 15.46C134.67 15.46 133.08 16.96 133.08 19.35L133.08 28.77ZM106.08 28.77L101.9 28.77L101.9 12.56L106.08 12.56L106.08 28.77ZM73.93 20.67C73.93 24.08 75.61 26.02 78.53 26.02C81.46 26.02 83.13 24.08 83.13 20.67C83.13 17.29 81.46 15.31 78.53 15.31C75.61 15.31 73.93 17.29 73.93 20.67ZM112.93 20.67C112.93 24.08 114.6 26.02 117.53 26.02C120.41 26.02 122.09 24.08 122.13 20.67C122.13 17.29 120.41 15.31 117.53 15.31C114.6 15.31 112.93 17.29 112.93 20.67Z" fill="#000000" fill-opacity="1.000000" fill-rule="evenodd"/>
</svg>
