<svg width="110.458984" height="22.000000" viewBox="0 0 110.459 22" fill="none" xmlns="http://www.w3.org/2000/svg" xmlns:xlink="http://www.w3.org/1999/xlink">
	<desc>
			Created with Pixso.
	</desc>
	<defs/>
	<path id="Vector" d="M89.93 6.59C90.35 7.24 90.49 7.97 90.53 8.8L90.59 9.9L90.59 17.6L90.66 18.7C90.78 20.5 92.28 21.83 94.32 21.94L95.56 22L95.56 9.9L95.62 8.8C95.67 7.98 95.81 7.23 96.24 6.58C96.67 5.92 97.3 5.36 98.05 4.98C98.81 4.59 99.66 4.39 100.53 4.39C101.41 4.4 102.26 4.6 103.01 4.99C103.77 5.37 104.39 5.93 104.82 6.6C105.25 7.24 105.38 7.99 105.43 8.8L105.49 9.9L105.49 17.6L105.55 18.7C105.68 20.51 107.17 21.84 109.22 21.94L110.45 22L110.45 8.8C110.45 6.46 109.41 4.23 107.55 2.58C105.68 0.93 103.16 0 100.53 0C99.12 0 97.73 0.26 96.44 0.78C95.16 1.29 94.01 2.04 93.08 2.98C92.15 2.04 91 1.29 89.72 0.78C88.43 0.26 87.04 0 85.63 0C83.57 0 81.66 0.55 80.07 1.51C79.11 0.55 76.94 0 75.7 0L75.7 22L76.94 21.94C79.02 21.82 80.52 20.52 80.6 18.7L80.67 17.6L80.67 9.9L80.73 8.8C80.78 7.97 80.91 7.24 81.33 6.59C81.77 5.92 82.4 5.37 83.15 4.98C83.91 4.6 84.76 4.4 85.63 4.4C86.5 4.4 87.36 4.6 88.11 4.98C88.87 5.37 89.49 5.92 89.93 6.59ZM4.96 21.94L6.2 22L24.82 22L24.75 20.9C24.59 19.09 23.14 17.77 21.09 17.65L19.85 17.6L8.68 17.6L23.58 4.39L23.51 3.3C23.42 1.47 21.91 0.15 19.85 0.05L18.61 0L0 0L0.06 1.1C0.22 2.89 1.68 4.24 3.72 4.34L4.96 4.4L16.13 4.4L1.24 17.6L1.3 18.7C1.42 20.51 2.9 21.82 4.96 21.94L4.96 21.94ZM70.83 3.22C71.98 4.24 72.9 5.45 73.52 6.79C74.14 8.12 74.46 9.55 74.46 10.99C74.46 12.44 74.14 13.87 73.52 15.2C72.9 16.54 71.98 17.75 70.83 18.77C68.5 20.83 65.34 21.99 62.05 21.99C58.76 21.99 55.6 20.83 53.27 18.77C48.42 14.48 48.42 7.51 53.27 3.22C54.42 2.2 55.79 1.39 57.3 0.83C58.8 0.28 60.41 0 62.04 0C63.67 -0.01 65.29 0.28 66.8 0.83C68.31 1.38 69.67 2.19 70.83 3.22L70.83 3.22ZM67.32 6.33C68.71 7.57 69.5 9.25 69.5 11C69.5 12.75 68.71 14.43 67.32 15.67C65.92 16.9 64.02 17.6 62.05 17.6C60.08 17.6 58.18 16.9 56.78 15.67C55.39 14.43 54.6 12.75 54.6 11C54.6 9.25 55.39 7.57 56.78 6.33C58.18 5.09 60.08 4.4 62.05 4.4C64.02 4.4 65.92 5.09 67.32 6.33ZM36 0C37.62 0 39.24 0.28 40.74 0.83C42.25 1.39 43.61 2.2 44.76 3.22C49.61 7.51 49.61 14.48 44.76 18.77C42.44 20.83 39.28 21.99 35.99 21.99C32.69 21.99 29.54 20.83 27.21 18.77C22.36 14.48 22.36 7.51 27.21 3.22C28.36 2.2 29.73 1.39 31.23 0.83C32.74 0.28 34.35 0 35.98 0L36 0ZM41.25 6.33C42.65 7.57 43.43 9.25 43.43 11C43.43 12.75 42.65 14.43 41.25 15.66C39.86 16.9 37.96 17.6 35.99 17.6C34.01 17.6 32.12 16.9 30.72 15.66C29.33 14.43 28.54 12.75 28.54 11C28.54 9.25 29.33 7.57 30.72 6.33C32.12 5.09 34.01 4.4 35.99 4.4C37.96 4.4 39.86 5.09 41.25 6.33L41.25 6.33Z" fill="#2D8CFF" fill-opacity="1.000000" fill-rule="evenodd"/>
</svg>
