<svg width="30.000000" height="30.000000" viewBox="0 0 30 30" fill="none" xmlns="http://www.w3.org/2000/svg" xmlns:xlink="http://www.w3.org/1999/xlink">
	<desc>
			Created with Pixso.
	</desc>
	<defs/>
	<circle id="Ellipse 3" cx="15.000000" cy="15.000000" r="15.000000" fill="#FFFFFF" fill-opacity="1.000000"/>
	<path id="linkedin" d="M9.76 10.66C8.73 10.66 7.94 9.87 7.94 8.88C7.94 7.9 8.73 7.05 9.76 7.05C10.74 7.05 11.53 7.9 11.53 8.88C11.53 9.87 10.74 10.66 9.76 10.66ZM19.81 22.05L22.94 22.05L22.94 16.57C22.94 13.9 22.33 11.79 19.2 11.79C17.7 11.79 16.67 12.63 16.25 13.43L16.21 13.43L16.21 12.07L13.26 12.07L13.26 22.05L16.35 22.05L16.35 17.13C16.35 15.82 16.58 14.55 18.22 14.55C19.81 14.55 19.81 16.05 19.81 17.18L19.81 22.05ZM11.3 22.05L8.22 22.05L8.22 12.07L11.3 12.07L11.3 22.05Z" fill="#000000" fill-opacity="1.000000" fill-rule="evenodd"/>
</svg>
