<svg width="125.248047" height="30.000000" viewBox="0 0 125.248 30" fill="none" xmlns="http://www.w3.org/2000/svg" xmlns:xlink="http://www.w3.org/1999/xlink">
	<desc>
			Created with Pixso.
	</desc>
	<defs/>
	<path id="Vector" d="M17.22 28.06C15.33 28.35 13.41 28.44 11.43 28.68L5.38 12.97L5.38 29.35C3.5 29.53 1.78 29.76 0 30L0 0L5.02 0L11.9 17.02L11.9 0L17.22 0L17.22 28.06ZM27.63 10.98C29.68 10.98 32.82 10.89 34.7 10.89L34.7 15.58C32.36 15.58 29.61 15.58 27.63 15.67L27.63 22.64C30.74 22.47 33.84 22.23 36.98 22.14L36.98 26.65L22.34 27.68L22.34 0L36.98 0L36.98 4.68L27.63 4.68L27.63 10.98ZM56.65 4.68L51.16 4.68L51.16 26.25C49.38 26.25 47.59 26.25 45.88 26.3L45.88 4.68L40.39 4.68L40.39 0L56.65 0L56.65 4.68ZM65.25 10.66L72.49 10.66L72.49 15.35L65.25 15.35L65.25 25.98L60.06 25.98L60.06 0L74.83 0L74.83 4.68L65.25 4.68L65.25 10.66ZM83.43 21.88C86.44 21.94 89.48 22.14 92.42 22.29L92.42 26.92C87.69 26.66 82.96 26.39 78.14 26.3L78.14 0L83.43 0L83.43 21.88ZM96.88 27.24C98.57 27.33 100.35 27.42 102.07 27.59L102.07 0L96.88 0L96.88 27.24ZM125.24 0L118.53 14.26L125.24 30C123.26 29.76 121.28 29.44 119.29 29.15L115.49 20.47L111.62 28.44C109.71 28.15 107.86 28.06 105.94 27.83L112.75 14.09L106.6 0L112.28 0L115.76 7.88L119.46 0L125.24 0L125.24 0Z" fill="#D81F26" fill-opacity="1.000000" fill-rule="nonzero"/>
</svg>
