<svg width="30.000000" height="30.000000" viewBox="0 0 30 30" fill="none" xmlns="http://www.w3.org/2000/svg" xmlns:xlink="http://www.w3.org/1999/xlink">
	<desc>
			Created with Pixso.
	</desc>
	<defs/>
	<circle id="Ellipse 13" cx="15.000000" cy="15.000000" r="15.000000" fill="#FFFFFF" fill-opacity="1.000000"/>
	<path id="twitter" d="M21.99 11.49C22.68 10.97 23.3 10.35 23.78 9.62C23.16 9.9 22.44 10.11 21.72 10.18C22.47 9.73 23.02 9.04 23.3 8.18C22.61 8.59 21.82 8.9 21.03 9.07C20.34 8.35 19.41 7.94 18.37 7.94C16.37 7.94 14.75 9.56 14.75 11.56C14.75 11.83 14.79 12.11 14.86 12.38C11.86 12.21 9.17 10.76 7.38 8.59C7.07 9.11 6.9 9.73 6.9 10.42C6.9 11.66 7.51 12.76 8.51 13.42C7.93 13.38 7.34 13.24 6.86 12.97L6.86 13C6.86 14.76 8.1 16.21 9.75 16.55C9.48 16.62 9.14 16.69 8.83 16.69C8.58 16.69 8.38 16.66 8.14 16.62C8.58 18.07 9.93 19.1 11.51 19.14C10.27 20.1 8.72 20.69 7.03 20.69C6.72 20.69 6.45 20.66 6.17 20.62C7.76 21.65 9.65 22.24 11.72 22.24C18.37 22.24 21.99 16.76 21.99 11.97C21.99 11.8 21.99 11.66 21.99 11.49Z" fill="#000000" fill-opacity="1.000000" fill-rule="nonzero"/>
</svg>
