<svg width="19.000000" height="19.000000" viewBox="0 0 19 19" fill="none" xmlns="http://www.w3.org/2000/svg" xmlns:xlink="http://www.w3.org/1999/xlink">
	<desc>
			Created with Pixso.
	</desc>
	<defs/>
	<path id="Vector" d="M13 4C13 3.73 13.1 3.48 13.29 3.29C13.48 3.1 13.73 3 14 3C14.26 3 14.51 3.1 14.7 3.29C14.89 3.48 15 3.73 15 4C15 4.26 14.89 4.51 14.7 4.7C14.51 4.89 14.26 5 14 5C13.73 5 13.48 4.89 13.29 4.7C13.1 4.51 13 4.26 13 4Z" fill="#CEAAD0" fill-opacity="1.000000" fill-rule="nonzero"/>
	<path id="Vector" d="M9 4.25C7.74 4.25 6.53 4.75 5.64 5.64C4.75 6.53 4.25 7.74 4.25 9C4.25 10.25 4.75 11.46 5.64 12.35C6.53 13.25 7.74 13.75 9 13.75C10.25 13.75 11.46 13.25 12.35 12.35C13.24 11.46 13.75 10.25 13.75 9C13.75 7.74 13.24 6.53 12.35 5.64C11.46 4.75 10.25 4.25 9 4.25ZM5.75 9C5.75 8.13 6.09 7.31 6.7 6.7C7.31 6.09 8.13 5.75 9 5.75C9.86 5.75 10.68 6.09 11.29 6.7C11.9 7.31 12.25 8.13 12.25 9C12.25 9.86 11.9 10.68 11.29 11.29C10.68 11.9 9.86 12.25 9 12.25C8.13 12.25 7.31 11.9 6.7 11.29C6.09 10.68 5.75 9.86 5.75 9Z" fill="#CEAAD0" fill-opacity="1.000000" fill-rule="evenodd"/>
	<path id="Vector" d="M14.25 -0.17C10.76 -0.56 7.23 -0.56 3.74 -0.17C1.72 0.05 0.1 1.64 -0.14 3.66C-0.55 7.2 -0.55 10.78 -0.14 14.33C0.1 16.35 1.72 17.94 3.74 18.16C7.23 18.55 10.76 18.55 14.25 18.16C16.27 17.94 17.89 16.35 18.13 14.33C18.54 10.78 18.54 7.2 18.13 3.66C17.89 1.64 16.27 0.05 14.25 -0.17ZM3.9 1.32C7.29 0.94 10.7 0.94 14.09 1.32C15.42 1.47 16.48 2.52 16.64 3.83C17.04 7.26 17.04 10.73 16.64 14.15C16.56 14.8 16.26 15.4 15.8 15.85C15.34 16.31 14.73 16.6 14.09 16.67C10.7 17.04 7.29 17.04 3.9 16.67C3.26 16.6 2.65 16.31 2.19 15.85C1.73 15.4 1.43 14.8 1.35 14.15C0.95 10.73 0.95 7.26 1.35 3.83C1.43 3.19 1.73 2.59 2.19 2.13C2.65 1.68 3.26 1.39 3.9 1.32Z" fill="#CEAAD0" fill-opacity="1.000000" fill-rule="evenodd"/>
</svg>
